<?xml version="1.0" standalone="no"?>
<!DOCTYPE svg PUBLIC "-//W3C//DTD SVG 20010904//EN"
 "http://www.w3.org/TR/2001/REC-SVG-20010904/DTD/svg10.dtd">
<svg version="1.0" xmlns="http://www.w3.org/2000/svg"
 width="1920.000000pt" height="1920.000000pt" viewBox="0 0 1920.000000 1920.000000"
 preserveAspectRatio="xMidYMid meet">

<g transform="translate(0.000000,1920.000000) scale(0.100000,-0.100000)"
fill="#000000" stroke="none">
<path d="M15338 15915 c413 -586 696 -1250 860 -2020 108 -504 155 -986 155
-1580 0 -461 -27 -872 -88 -1330 -313 -2364 -1200 -4354 -2575 -5778 l-131
-136 683 -982 c376 -541 686 -988 690 -994 5 -8 -398 -310 -1182 -885 l-1189
-873 99 -144 c54 -80 109 -157 122 -173 l23 -28 1192 877 c656 482 1197 881
1203 887 8 8 -184 291 -680 1004 l-690 993 138 141 c1066 1088 1886 2642 2307
4371 305 1253 415 2460 319 3495 -110 1189 -491 2219 -1111 3002 -45 57 -107
130 -138 163 l-56 60 49 -70z"/>
<path d="M10185 15314 c-22 -2 -92 -9 -155 -15 -435 -41 -895 -172 -1305 -374
-1362 -669 -2369 -2133 -2800 -4070 -159 -714 -223 -1294 -212 -1929 8 -507
56 -859 173 -1274 297 -1055 1003 -1775 1984 -2022 261 -66 448 -89 765 -97
533 -12 996 63 1463 238 565 212 1058 535 1517 994 199 199 318 336 490 567
l115 153 -1773 5 -1773 5 2319 2560 c1275 1408 2341 2586 2369 2617 l50 58
-27 132 c-100 497 -261 904 -500 1263 -115 174 -218 297 -371 445 -423 410
-928 639 -1594 726 -118 15 -634 28 -735 18z m1183 -1802 c-30 -42 -5279
-5832 -5287 -5832 -11 0 -58 297 -77 485 -21 217 -29 663 -15 900 59 1025 311
2100 696 2970 225 509 533 1012 858 1403 l77 92 1881 0 c1812 0 1880 -1 1867
-18z"/>
<path d="M4239 4435 c208 -272 581 -627 901 -857 522 -375 1158 -652 1842
-802 425 -94 804 -139 1302 -156 868 -29 1723 82 2540 330 182 55 446 147 459
160 10 9 -209 330 -225 330 -7 0 -88 -27 -181 -60 -568 -203 -1207 -345 -1817
-405 -502 -48 -1069 -48 -1570 0 -1285 125 -2326 577 -3143 1363 -72 70 -121
114 -108 97z"/>
</g>
</svg>
